<svg width="21" height="19" viewBox="0 0 21 19" fill="none" xmlns="http://www.w3.org/2000/svg">
<path d="M2.17725 0.126549C2.05191 0.126549 1.92705 0.173208 1.8311 0.264669C1.64016 0.448535 1.64016 0.747464 1.8311 0.93133L3.73779 2.76741C1.87862 4.48268 0.708496 6.88575 0.708496 9.55556C0.708496 14.7522 5.10365 18.9846 10.5002 18.9846C15.8967 18.9846 20.2918 14.7522 20.2918 9.55556C20.2918 4.71293 16.4794 0.708875 11.5864 0.187322C11.554 0.183918 11.5215 0.182075 11.4889 0.181797C10.9671 0.176955 10.5331 0.566934 10.5019 1.06851C10.4708 1.57008 10.8536 2.00706 11.3722 2.06207C15.2898 2.47965 18.3335 5.66316 18.3335 9.55556C18.3335 13.7332 14.8385 17.0988 10.5002 17.0988C6.1618 17.0988 2.66683 13.7332 2.66683 9.55556C2.66683 7.39682 3.61419 5.46752 5.11857 4.09705L6.72693 5.64584C6.91787 5.8297 7.22829 5.8297 7.41923 5.64584C7.51519 5.55437 7.56266 5.4332 7.56266 5.31251V1.06945C7.56266 0.5487 7.12427 0.126549 6.5835 0.126549H2.17725Z" fill="url(#paint0_linear_364_95)"/>
<defs>
<linearGradient id="paint0_linear_364_95" x1="0.708496" y1="0.126549" x2="0.708496" y2="18.9846" gradientUnits="userSpaceOnUse">
<stop stop-color="#FF9500"/>
<stop offset="1" stop-color="#FF9F0A"/>
</linearGradient>
</defs>
</svg>
